<svg xmlns="http://www.w3.org/2000/svg" width="800" height="1200" viewBox="0 0 800 1200" fill="none">
  <defs>
    <radialGradient id="bg" cx="0" cy="0" r="1" gradientUnits="userSpaceOnUse" gradientTransform="translate(400 600) rotate(90) scale(660 455)">
      <stop stop-color="#19162A"/>
      <stop offset="0.52" stop-color="#0E0D18"/>
      <stop offset="1" stop-color="#07070D"/>
    </radialGradient>
    <linearGradient id="gold" x1="230" y1="210" x2="590" y2="1190" gradientUnits="userSpaceOnUse">
      <stop stop-color="#F0D394"/>
      <stop offset="0.42" stop-color="#C79548"/>
      <stop offset="0.72" stop-color="#E2BD72"/>
      <stop offset="1" stop-color="#9E6D31"/>
    </linearGradient>
    <linearGradient id="moon" x1="245" y1="438" x2="550" y2="963" gradientUnits="userSpaceOnUse">
      <stop stop-color="#FFF8E7"/>
      <stop offset="0.46" stop-color="#E5C679"/>
      <stop offset="1" stop-color="#B47B33"/>
    </linearGradient>
    <radialGradient id="blue" cx="0" cy="0" r="1" gradientUnits="userSpaceOnUse" gradientTransform="translate(400 600) rotate(90) scale(165)">
      <stop stop-color="#6277FF" stop-opacity="0.34"/>
      <stop offset="1" stop-color="#304CFF" stop-opacity="0"/>
    </radialGradient>
    <filter id="softGlow" x="-80%" y="-80%" width="260%" height="260%">
      <feGaussianBlur stdDeviation="8" result="blur"/>
      <feMerge>
        <feMergeNode in="blur"/>
        <feMergeNode in="SourceGraphic"/>
      </feMerge>
    </filter>
    <filter id="blueGlow" x="-100%" y="-100%" width="300%" height="300%">
      <feGaussianBlur stdDeviation="11" result="blur"/>
      <feColorMatrix in="blur" values="0 0 0 0 0.18 0 0 0 0 0.28 0 0 0 0 1 0 0 0 0.9 0"/>
      <feMerge>
        <feMergeNode/>
        <feMergeNode in="SourceGraphic"/>
      </feMerge>
    </filter>
    <filter id="grain" x="0" y="0" width="100%" height="100%">
      <feTurbulence type="fractalNoise" baseFrequency="0.78" numOctaves="3" seed="19" result="noise"/>
      <feColorMatrix in="noise" type="saturate" values="0" result="mono"/>
      <feComponentTransfer in="mono" result="faint">
        <feFuncA type="table" tableValues="0 0.075"/>
      </feComponentTransfer>
      <feBlend in="SourceGraphic" in2="faint" mode="soft-light"/>
    </filter>
    <path id="spark4" d="M0 -17C2.3 -5.8 5.8 -2.3 17 0C5.8 2.3 2.3 5.8 0 17C-2.3 5.8 -5.8 2.3 -17 0C-5.8 -2.3 -2.3 -5.8 0 -17Z"/>
    <path id="spark8" d="M0 -23L4.8 -6.7L17 -17L6.7 -4.8L23 0L6.7 4.8L17 17L4.8 6.7L0 23L-4.8 6.7L-17 17L-6.7 4.8L-23 0L-6.7 -4.8L-17 -17L-4.8 -6.7Z"/>
    <g id="corner-constellation">
      <use href="#spark8" transform="translate(92 108) scale(.72)" fill="#D6AA5E"/>
      <circle cx="126" cy="85" r="5.5" fill="#E7C880"/>
      <circle cx="168" cy="103" r="8" fill="#B9853E"/>
      <circle cx="216" cy="92" r="4" fill="#F5DEAA"/>
      <path d="M108 98L126 85L168 103L216 92" stroke="#C89A4F" stroke-width="3" stroke-linecap="round"/>
      <path d="M92 130V168" stroke="#C89A4F" stroke-width="2" stroke-linecap="round" stroke-dasharray="2 9"/>
      <use href="#spark4" transform="translate(92 194) scale(.7)" fill="#D6AA5E"/>
    </g>
    <g id="upper-rite">
      <path d="M170 176C206 178 217 154 246 154C269 154 279 172 268 187C257 202 231 198 232 177" stroke="#D1A357" stroke-width="2.5" stroke-linecap="round"/>
      <path d="M630 176C594 178 583 154 554 154C531 154 521 172 532 187C543 202 569 198 568 177" stroke="#D1A357" stroke-width="2.5" stroke-linecap="round"/>
      <path d="M232 177C273 201 313 189 345 162C363 147 379 143 400 150C421 143 437 147 455 162C487 189 527 201 568 177" stroke="url(#gold)" stroke-width="3.2" stroke-linecap="round"/>
      <path d="M198 207C246 221 292 215 330 191M602 207C554 221 508 215 470 191" stroke="#7F5A31" stroke-width="1.5" stroke-linecap="round"/>

      <path d="M400 117C409 135 422 143 442 145C425 155 416 168 414 188C405 176 396 171 400 150C404 171 395 176 386 188C384 168 375 155 358 145C378 143 391 135 400 117Z" fill="url(#moon)"/>
      <path d="M319 170C301 147 277 142 256 151C273 170 293 180 319 170Z" fill="#B98542" opacity=".78"/>
      <path d="M481 170C499 147 523 142 544 151C527 170 507 180 481 170Z" fill="#B98542" opacity=".78"/>

      <path d="M400 178V194" stroke="#C79548" stroke-width="1.5" stroke-linecap="round" stroke-dasharray="2 6"/>
      <circle cx="400" cy="241" r="43" fill="#0B0B14" stroke="#E1BB70" stroke-width="2.5"/>
      <circle cx="400" cy="241" r="34" stroke="#75532F" stroke-width="1.3" stroke-dasharray="2 7"/>
      <use href="#spark8" transform="translate(400 241) scale(1.05)" fill="#F6E5B6" filter="url(#softGlow)"/>
      <circle cx="400" cy="241" r="5.5" fill="#3852F5"/>

      <path d="M357 238C326 229 299 235 280 255C264 272 244 277 224 267C238 291 261 301 283 289C304 278 318 253 350 261" stroke="#C79548" stroke-width="2.1" stroke-linecap="round"/>
      <path d="M443 238C474 229 501 235 520 255C536 272 556 277 576 267C562 291 539 301 517 289C496 278 482 253 450 261" stroke="#C79548" stroke-width="2.1" stroke-linecap="round"/>
      <path d="M350 275C319 266 292 280 277 306C267 324 252 330 235 323" stroke="#7D5931" stroke-width="1.5" stroke-linecap="round"/>
      <path d="M450 275C481 266 508 280 523 306C533 324 548 330 565 323" stroke="#7D5931" stroke-width="1.5" stroke-linecap="round"/>

      <use href="#spark4" transform="translate(224 267) scale(.42)" fill="#E7C579"/>
      <use href="#spark4" transform="translate(576 267) scale(.42)" fill="#E7C579"/>
      <circle cx="277" cy="306" r="5" fill="#3852F5" filter="url(#blueGlow)"/>
      <circle cx="523" cy="306" r="5" fill="#3852F5" filter="url(#blueGlow)"/>
      <path d="M277 306V335M523 306V335" stroke="#B8853F" stroke-width="1.6" stroke-linecap="round" stroke-dasharray="2 7"/>
      <circle cx="277" cy="343" r="4" fill="#EACD8A"/>
      <circle cx="523" cy="343" r="4" fill="#EACD8A"/>
      <circle cx="384" cy="304" r="3" fill="#CAA054"/>
      <use href="#spark4" transform="translate(400 304) scale(.28)" fill="#F5E6BC"/>
      <circle cx="416" cy="304" r="3" fill="#CAA054"/>
    </g>
  </defs>

  <rect width="800" height="1200" rx="34" fill="url(#bg)"/>
  <rect width="800" height="1200" rx="34" fill="url(#blue)"/>
  <g filter="url(#grain)">
    <rect x="24" y="24" width="752" height="1152" rx="28" stroke="#5F4527" stroke-width="2"/>
    <rect x="39" y="39" width="722" height="1122" rx="21" stroke="url(#gold)" stroke-width="5"/>
    <rect x="55" y="55" width="690" height="1090" rx="14" stroke="#D3AB65" stroke-width="1.4" opacity=".75"/>
    <path d="M80 80H285M515 80H720M80 1120H285M515 1120H720" stroke="#8D6535" stroke-width="2"/>
    <path d="M80 80V285M720 80V285M80 915V1120M720 915V1120" stroke="#8D6535" stroke-width="2"/>
  </g>

  <g opacity=".96">
    <use href="#corner-constellation"/>
    <use href="#corner-constellation" transform="matrix(-1 0 0 1 800 0)"/>
    <use href="#corner-constellation" transform="rotate(180 400 600)"/>
    <use href="#corner-constellation" transform="matrix(1 0 0 -1 0 1200)"/>
  </g>

  <use href="#upper-rite"/>
  <use href="#upper-rite" transform="rotate(180 400 600)"/>

  <g transform="translate(0 -100)">
  <g transform="translate(400 700) scale(.88) translate(-400 -700)">

  <circle cx="400" cy="700" r="226" stroke="#805B30" stroke-width="1.5" stroke-dasharray="2 13"/>
  <circle cx="400" cy="700" r="207" stroke="#D5A85B" stroke-width="2.5"/>
  <circle cx="400" cy="700" r="192" stroke="#6E4E2B" stroke-width="1.3"/>
  <path d="M400 493A207 207 0 0 1 607 700" stroke="#F0D48D" stroke-width="3.5" stroke-linecap="round"/>
  <path d="M400 907A207 207 0 0 1 193 700" stroke="#F0D48D" stroke-width="3.5" stroke-linecap="round"/>
  <path d="M400 493A207 207 0 0 0 193 700" stroke="#3450F5" stroke-width="2.5" stroke-linecap="round" opacity=".8" filter="url(#blueGlow)"/>
  <path d="M400 907A207 207 0 0 0 607 700" stroke="#3450F5" stroke-width="2.5" stroke-linecap="round" opacity=".8" filter="url(#blueGlow)"/>

  <g filter="url(#softGlow)" opacity=".18">
    <circle cx="400" cy="700" r="137" fill="#4055FF"/>
  </g>
  <circle cx="400" cy="700" r="137" fill="#0B0B15" stroke="#BB873F" stroke-width="2.5"/>
  <circle cx="400" cy="700" r="119" stroke="#E6C277" stroke-width="1.6" stroke-dasharray="2 9"/>
  <circle cx="400" cy="700" r="98" stroke="#60472C" stroke-width="1.3"/>

  <g>
    <circle cx="400" cy="516" r="31" fill="url(#moon)"/>
    <circle cx="415" cy="505" r="31" fill="#0B0B15"/>
    <path d="M382 540C397 549 414 548 426 540" stroke="#F5DE9C" stroke-width="1.5" stroke-linecap="round" opacity=".8"/>
    <circle cx="400" cy="516" r="38" stroke="#7E592E" stroke-width="1.2" stroke-dasharray="2 7"/>
  </g>
  <g transform="rotate(180 400 700)">
    <circle cx="400" cy="516" r="31" fill="url(#moon)"/>
    <circle cx="415" cy="505" r="31" fill="#0B0B15"/>
    <path d="M382 540C397 549 414 548 426 540" stroke="#F5DE9C" stroke-width="1.5" stroke-linecap="round" opacity=".8"/>
    <circle cx="400" cy="516" r="38" stroke="#7E592E" stroke-width="1.2" stroke-dasharray="2 7"/>
  </g>

  <g>
    <circle cx="216" cy="700" r="25" fill="url(#moon)"/>
    <path d="M216 675A25 25 0 0 1 216 725Z" fill="#0B0B15"/>
    <circle cx="216" cy="700" r="32" stroke="#7E592E" stroke-width="1.2" stroke-dasharray="2 7"/>
  </g>
  <g transform="rotate(180 400 700)">
    <circle cx="216" cy="700" r="25" fill="url(#moon)"/>
    <path d="M216 675A25 25 0 0 1 216 725Z" fill="#0B0B15"/>
    <circle cx="216" cy="700" r="32" stroke="#7E592E" stroke-width="1.2" stroke-dasharray="2 7"/>
  </g>

  <g fill="#E5BD6E">
    <circle cx="270" cy="570" r="9"/>
    <circle cx="530" cy="830" r="9"/>
    <circle cx="530" cy="570" r="5"/>
    <circle cx="270" cy="830" r="5"/>
  </g>
  <g stroke="#B7833E" stroke-width="1.5" stroke-linecap="round">
    <path d="M278 566L318 548L350 560"/>
    <path d="M522 834L482 852L450 840"/>
    <path d="M534 576L559 600L572 626"/>
    <path d="M266 824L241 800L228 774"/>
  </g>
  <g fill="#F7E9BF">
    <use href="#spark4" transform="translate(350 560) scale(.46)"/>
    <use href="#spark4" transform="translate(450 840) scale(.46)"/>
    <use href="#spark4" transform="translate(572 626) scale(.34)"/>
    <use href="#spark4" transform="translate(228 774) scale(.34)"/>
  </g>

  <use href="#spark8" transform="translate(400 700) scale(3.3)" fill="url(#moon)" filter="url(#softGlow)"/>
  <use href="#spark4" transform="translate(400 700) scale(2.15) rotate(45)" fill="#FFF6DC"/>
  <circle cx="400" cy="700" r="15" fill="#0A0A13" stroke="#EBCB83" stroke-width="3"/>
  <circle cx="400" cy="700" r="6.5" fill="#3650F4" filter="url(#blueGlow)"/>

  <g fill="#F5E3AE" filter="url(#softGlow)">
    <use href="#spark4" transform="translate(312 700) scale(.3)"/>
    <use href="#spark4" transform="translate(488 700) scale(.3)"/>
    <use href="#spark4" transform="translate(400 612) scale(.3)"/>
    <use href="#spark4" transform="translate(400 788) scale(.3)"/>
  </g>

  <g stroke="#D4AA60" stroke-linecap="round">
    <path d="M174 700H145" stroke-width="2"/>
    <path d="M626 700H655" stroke-width="2"/>
    <path d="M400 455V421" stroke-width="2"/>
    <path d="M400 945V979" stroke-width="2"/>
  </g>
  <use href="#spark8" transform="translate(137 700) scale(.5)" fill="#D9AE61"/>
  <use href="#spark8" transform="translate(663 700) scale(.5)" fill="#D9AE61"/>
  <use href="#spark4" transform="translate(400 410) scale(.58)" fill="#F1D391"/>
  <use href="#spark4" transform="translate(400 990) scale(.58)" fill="#F1D391"/>

  <g fill="#3550FA">
    <circle cx="181" cy="494" r="3.5" filter="url(#blueGlow)"/>
    <circle cx="619" cy="494" r="3.5" filter="url(#blueGlow)"/>
    <circle cx="181" cy="906" r="3.5" filter="url(#blueGlow)"/>
    <circle cx="619" cy="906" r="3.5" filter="url(#blueGlow)"/>
  </g>
  </g>
  </g>
</svg>
